<?xml version="1.0" encoding="utf-8"?>
<!-- Generator: Adobe Illustrator 16.0.0, SVG Export Plug-In . SVG Version: 6.00 Build 0)  -->
<!DOCTYPE svg PUBLIC "-//W3C//DTD SVG 1.0//EN" "http://www.w3.org/TR/2001/REC-SVG-20010904/DTD/svg10.dtd">
<svg version="1.0" xmlns="http://www.w3.org/2000/svg" xmlns:xlink="http://www.w3.org/1999/xlink" x="0px" y="0px" width="1400px"
	 height="950px" viewBox="0 0 1400 950" enable-background="new 0 0 1400 950" xml:space="preserve">
<g id="design">
	<g>
		<defs>
			<rect id="SVGID_1_" x="-37.256" y="-22.144" width="1460" height="1000"/>
		</defs>
		<clipPath id="SVGID_2_">
			<use xlink:href="#SVGID_1_"  overflow="visible"/>
		</clipPath>
		<g clip-path="url(#SVGID_2_)">
			
				<radialGradient id="SVGID_3_" cx="1037.5596" cy="1154.5" r="1059.3048" gradientTransform="matrix(-0.9624 -0.2692 0.154 -0.5417 1867.0095 2099.4321)" gradientUnits="userSpaceOnUse">
				<stop  offset="0.3235" style="stop-color:#8C8C8C"/>
				<stop  offset="0.3308" style="stop-color:#8F8F8F"/>
				<stop  offset="0.4054" style="stop-color:#A6A6A6"/>
				<stop  offset="0.4753" style="stop-color:#B4B4B4"/>
				<stop  offset="0.5353" style="stop-color:#B9B9B9"/>
				<stop  offset="0.5679" style="stop-color:#C4C4C4"/>
				<stop  offset="0.6762" style="stop-color:#E4E4E4"/>
				<stop  offset="0.7671" style="stop-color:#F8F8F8"/>
				<stop  offset="0.8291" style="stop-color:#FFFFFF"/>
			</radialGradient>
			<path opacity="0.4" fill="url(#SVGID_3_)" d="M1370.599,994.369c0,0-415.713-304.813-1029.53-283.828
				c191.648-224.059,893.71-310.348,1155.443-235.246c5.265,258.145,10.875,533.219,10.875,533.219L1370.599,994.369z"/>
			
				<radialGradient id="SVGID_4_" cx="5435.9707" cy="349.2573" r="746.0508" gradientTransform="matrix(0.9624 0.2692 -0.154 0.5417 -5011.3975 -1800.698)" gradientUnits="userSpaceOnUse">
				<stop  offset="0.3235" style="stop-color:#8C8C8C"/>
				<stop  offset="0.3308" style="stop-color:#8F8F8F"/>
				<stop  offset="0.4054" style="stop-color:#A6A6A6"/>
				<stop  offset="0.4753" style="stop-color:#B4B4B4"/>
				<stop  offset="0.5353" style="stop-color:#B9B9B9"/>
				<stop  offset="0.5679" style="stop-color:#C4C4C4"/>
				<stop  offset="0.6762" style="stop-color:#E4E4E4"/>
				<stop  offset="0.7671" style="stop-color:#F8F8F8"/>
				<stop  offset="0.8291" style="stop-color:#FFFFFF"/>
			</radialGradient>
			<path opacity="0.4" fill="url(#SVGID_4_)" d="M-61.938-7.008c0,0,292.779,214.674,725.081,199.895
				C528.167,350.687,33.717,411.459-150.617,358.566c-3.708-181.807-7.659-375.537-7.659-375.537L-61.938-7.008z"/>
			
				<radialGradient id="SVGID_5_" cx="5089.8496" cy="583.0596" r="1252.4092" gradientTransform="matrix(0.9584 0.2832 -0.1619 0.5394 -4273.1885 -2166.6768)" gradientUnits="userSpaceOnUse">
				<stop  offset="0.3235" style="stop-color:#8C8C8C"/>
				<stop  offset="0.3308" style="stop-color:#8F8F8F"/>
				<stop  offset="0.4054" style="stop-color:#A6A6A6"/>
				<stop  offset="0.4753" style="stop-color:#B4B4B4"/>
				<stop  offset="0.5353" style="stop-color:#B9B9B9"/>
				<stop  offset="0.5679" style="stop-color:#C4C4C4"/>
				<stop  offset="0.6762" style="stop-color:#E4E4E4"/>
				<stop  offset="0.7671" style="stop-color:#F8F8F8"/>
				<stop  offset="0.8291" style="stop-color:#FFFFFF"/>
			</radialGradient>
			<path opacity="0.4" fill="url(#SVGID_5_)" d="M123.569-179.3c0,0,486.178,367.529,1212.183,353.33
				C1105.317,435.595,273.862,525.469-34.255,432.161c-1.761-305.265-3.639-630.548-3.639-630.548L123.569-179.3z"/>
			
				<radialGradient id="SVGID_6_" cx="-466.0313" cy="441.7744" r="1252.4091" gradientTransform="matrix(-0.9584 0.2832 0.1619 0.5394 443.3743 -408.8787)" gradientUnits="userSpaceOnUse">
				<stop  offset="0.3235" style="stop-color:#8C8C8C"/>
				<stop  offset="0.3308" style="stop-color:#8F8F8F"/>
				<stop  offset="0.4054" style="stop-color:#A6A6A6"/>
				<stop  offset="0.4753" style="stop-color:#B4B4B4"/>
				<stop  offset="0.5353" style="stop-color:#B9B9B9"/>
				<stop  offset="0.5679" style="stop-color:#C4C4C4"/>
				<stop  offset="0.6762" style="stop-color:#E4E4E4"/>
				<stop  offset="0.7671" style="stop-color:#F8F8F8"/>
				<stop  offset="0.8291" style="stop-color:#FFFFFF"/>
			</radialGradient>
			<path opacity="0.4" fill="url(#SVGID_6_)" d="M1348.463-71.3c0,0-486.178,367.529-1212.183,353.33
				C366.715,543.594,1198.17,633.469,1506.288,540.16c1.761-305.264,3.639-630.547,3.639-630.547L1348.463-71.3z"/>
			
				<radialGradient id="SVGID_7_" cx="-325.4922" cy="-307.938" r="1117.6053" gradientTransform="matrix(-0.9672 0.2514 0.1439 0.5445 842.7795 637.5657)" gradientUnits="userSpaceOnUse">
				<stop  offset="0.3235" style="stop-color:#8C8C8C"/>
				<stop  offset="0.3308" style="stop-color:#8F8F8F"/>
				<stop  offset="0.4054" style="stop-color:#A6A6A6"/>
				<stop  offset="0.4753" style="stop-color:#B4B4B4"/>
				<stop  offset="0.5353" style="stop-color:#B9B9B9"/>
				<stop  offset="0.5679" style="stop-color:#C4C4C4"/>
				<stop  offset="0.6762" style="stop-color:#E4E4E4"/>
				<stop  offset="0.7671" style="stop-color:#F8F8F8"/>
				<stop  offset="0.8291" style="stop-color:#FFFFFF"/>
			</radialGradient>
			<path opacity="0.4" fill="url(#SVGID_7_)" d="M1451.505,605.789c0,0-444.448,313.414-1091.506,279.303
				c197.783,240.08,936.649,344.797,1214.197,270.684c10.588-272.193,21.873-562.238,21.873-562.238L1451.505,605.789z"/>
			
				<radialGradient id="SVGID_8_" cx="3379.0903" cy="1497.7852" r="732.2844" gradientTransform="matrix(0.9915 -0.1252 -0.0729 -0.5584 -3095.7061 2364.9609)" gradientUnits="userSpaceOnUse">
				<stop  offset="0.3235" style="stop-color:#8C8C8C"/>
				<stop  offset="0.3308" style="stop-color:#8F8F8F"/>
				<stop  offset="0.4054" style="stop-color:#A6A6A6"/>
				<stop  offset="0.4753" style="stop-color:#B4B4B4"/>
				<stop  offset="0.5353" style="stop-color:#B9B9B9"/>
				<stop  offset="0.5679" style="stop-color:#C4C4C4"/>
				<stop  offset="0.6762" style="stop-color:#E4E4E4"/>
				<stop  offset="0.7671" style="stop-color:#F8F8F8"/>
				<stop  offset="0.8291" style="stop-color:#FFFFFF"/>
			</radialGradient>
			<path opacity="0.5" fill="url(#SVGID_8_)" d="M-56.027,935.785c0,0,315.168-166.303,732.783-89.736
				C568.413,673.408,97.074,543.24-89.517,568.068c-29.765,175.992-61.482,363.523-61.482,363.523L-56.027,935.785z"/>
		</g>
	</g>
</g>
<g id="vexels">
	<g>
		<g>
			<path fill="#896B60" d="M703.491,902.628l-0.662-1.433c-0.325-0.688-1.188-1.007-1.917-0.712
				c-0.787,0.27-1.137,1.081-0.812,1.746l0.742,1.611l5.878,12.754c0.057,0.051,0.109,0.147,0.135,0.197
				c0,0.024,0.03,0.024,0.03,0.024c0.025,0.049,0.08,0.098,0.134,0.148c0,0.048,0.026,0.048,0.026,0.072
				c0.081,0.051,0.135,0.074,0.188,0.124c0.027,0,0.027,0,0.027,0c0.083,0.05,0.191,0.122,0.244,0.146c0.027,0,0.027,0,0.027,0
				s0.028,0,0.028,0.025c0.053,0,0.161,0.025,0.216,0.047c0.024,0,0.054,0,0.054,0c0.08,0.027,0.189,0.027,0.272,0.027
				c0.08,0,0.161,0,0.27-0.027c0.025,0,0.052,0,0.052,0c0.081-0.021,0.135-0.047,0.217-0.047c0.028-0.025,0.028-0.025,0.054-0.025
				c0.082-0.024,0.164-0.097,0.217-0.123c0.054-0.023,0.054-0.023,0.054-0.023c0.055-0.05,0.107-0.073,0.161-0.124
				c0.029-0.024,0.029-0.024,0.055-0.072c0.027-0.051,0.108-0.1,0.135-0.148c0.027,0,0.027,0,0.027-0.024
				c0.054-0.05,0.083-0.146,0.11-0.197l0.251-0.542l-1.602-3.469L703.491,902.628z M760.824,902.524
				c0.46-0.615,0.353-1.449-0.322-1.87c-0.676-0.466-1.568-0.343-2.081,0.297l-3.08,3.842l1.834,2.243L760.824,902.524z
				 M715.315,900.483c-0.729-0.295-1.62,0.024-1.945,0.712l-3.914,8.46l1.606,3.474l5.065-10.899
				C716.423,901.564,716.073,900.753,715.315,900.483z M680.428,895.283c-0.636-0.635-1.48-0.984-2.379-0.984
				c-0.899,0-1.742,0.35-2.378,0.984l-10.89,10.892c-1.31,1.313-1.31,3.443,0,4.753l10.89,10.892
				c0.636,0.635,1.479,0.983,2.378,0.983c0.898,0,1.743-0.349,2.379-0.982l10.889-10.893c0.637-0.637,0.986-1.477,0.986-2.378
				c0-0.895-0.35-1.74-0.986-2.375L680.428,895.283z M689.626,909.527l-10.601,10.602c-0.522,0.521-1.431,0.521-1.95,0
				l-10.602-10.602c-0.537-0.538-0.537-1.414-0.003-1.952l10.604-10.601c0.009-0.01,0.019-0.019,0.027-0.025v8.785
				c-0.431,0.146-0.829,0.377-1.161,0.71c-0.563,0.563-0.872,1.31-0.872,2.105c0,0.798,0.31,1.548,0.872,2.106
				c0.563,0.565,1.312,0.876,2.106,0.876c0.797,0,1.547-0.308,2.11-0.876c1.16-1.16,1.16-3.051,0-4.215
				c-0.332-0.332-0.73-0.562-1.163-0.707v-8.785c0.01,0.007,0.021,0.016,0.03,0.025l10.601,10.601
				c0.262,0.261,0.402,0.607,0.402,0.975C690.029,908.918,689.888,909.263,689.626,909.527z M755.692,908.87l-1.813-2.263
				l-4.564-5.656c-0.463-0.64-1.407-0.763-2.058-0.297c-0.676,0.421-0.809,1.255-0.351,1.87l5.135,6.346l-5.135,6.396
				c-0.458,0.59-0.325,1.452,0.351,1.869c0.244,0.172,0.542,0.271,0.865,0.271c0.46,0,0.891-0.223,1.192-0.567l4.564-5.681
				l4.876,6.101c0.281,0.351,0.727,0.532,1.141,0.532c0.309,0,0.671-0.142,0.929-0.349c0.613-0.487,0.661-1.371,0.171-1.981
				L755.692,908.87z M731.791,900.216c-4.37,0-7.929,3.865-7.929,8.614c0,4.712,3.559,8.549,7.929,8.549
				c2.685,0,5.157-1.465,6.616-3.921c0.352-0.634,0.174-1.424-0.444-1.895c-0.2-0.128-0.436-0.196-0.676-0.196
				c-0.468,0-0.883,0.25-1.108,0.661c-0.916,1.612-2.598,2.612-4.388,2.612c-2.652,0-4.851-2.109-5.244-4.964h11.795
				c0.737,0,1.313-0.573,1.313-1.304l-0.001-0.175C739.318,903.649,735.938,900.216,731.791,900.216z M726.739,906.973
				c0.717-2.42,2.7-4.019,5.052-4.019c2.305,0,4.298,1.634,4.97,4.019H726.739z M799.361,914.598c-0.026,0-2.03,0-2.06,0
				c-0.764,0-1.653-0.439-1.653-1.674v-13.697c0-0.806-0.657-1.459-1.466-1.459c-0.779,0-1.46,0.682-1.46,1.459v13.697
				c0,2.708,1.797,4.456,4.579,4.456c0.035,0,2.045,0,2.079-0.001c0.722-0.052,1.29-0.656,1.29-1.39
				C800.67,915.252,800.091,914.641,799.361,914.598z M821.728,910.077c-0.622-0.912-1.595-1.551-2.704-2.041
				c-1.08-0.47-2.351-0.788-3.729-1.034h-0.055c-1.458-0.246-2.673-0.643-3.376-1.084c-0.352-0.219-0.597-0.441-0.732-0.639
				c-0.134-0.195-0.188-0.395-0.188-0.687c0-0.519,0.297-1.06,1.03-1.551c0.727-0.491,1.809-0.837,3.023-0.837
				c1.648,0,2.973,0.737,4.353,1.574c0.648,0.393,1.514,0.221,1.918-0.369c0.433-0.565,0.245-1.354-0.377-1.747
				c-1.379-0.812-3.299-1.968-5.894-1.968c-1.757,0-3.402,0.468-4.675,1.303c-1.243,0.841-2.163,2.116-2.163,3.595
				c0,0.735,0.218,1.426,0.623,2.015c0.594,0.862,1.485,1.478,2.511,1.919c1.027,0.442,2.219,0.739,3.486,0.958h0.058
				c1.593,0.271,2.918,0.69,3.702,1.156c0.404,0.248,0.647,0.492,0.811,0.739c0.162,0.247,0.241,0.466,0.241,0.785
				c0,0.617-0.349,1.232-1.162,1.772c-0.809,0.541-2.025,0.911-3.377,0.911c-1.919,0.024-3.974-1.009-5.162-1.893
				c-0.596-0.446-1.486-0.372-1.973,0.168c-0.461,0.542-0.378,1.354,0.217,1.796c1.541,1.109,3.999,2.438,6.918,2.46
				c1.919,0,3.677-0.515,5.001-1.399c1.351-0.888,2.323-2.238,2.323-3.815C822.375,911.403,822.134,910.667,821.728,910.077z
				 M776.923,900.216c-4.372,0-7.927,3.865-7.927,8.614c0,4.712,3.555,8.549,7.927,8.549c2.688,0,5.157-1.465,6.618-3.921
				c0.351-0.634,0.173-1.424-0.444-1.895c-0.201-0.128-0.436-0.196-0.677-0.196c-0.468,0-0.883,0.25-1.108,0.661
				c-0.915,1.612-2.597,2.612-4.389,2.612c-2.651,0-4.851-2.109-5.244-4.964h11.797c0.737,0,1.313-0.573,1.313-1.304l-0.001-0.175
				C784.454,903.649,781.072,900.216,776.923,900.216z M771.872,906.973c0.716-2.42,2.701-4.019,5.052-4.019
				c2.309,0,4.299,1.634,4.97,4.019H771.872z"/>
		</g>
		<g>
			<path fill="#896B60" d="M583.818,909.693c0,0.511,0.005,0.975,0.015,1.391c0.011,0.416,0.055,0.824,0.136,1.225h-0.813
				l-0.3-1.066h-0.061c-0.2,0.351-0.49,0.642-0.871,0.872c-0.381,0.229-0.827,0.346-1.338,0.346c-1.003,0-1.747-0.315-2.232-0.947
				c-0.486-0.632-0.729-1.618-0.729-2.962c0-1.282,0.304-2.256,0.91-2.923c0.605-0.666,1.439-0.999,2.502-0.999
				c0.371,0,0.664,0.02,0.88,0.06s0.448,0.104,0.699,0.195v-3.128h1.202V909.693z M580.782,911.408c0.511,0,0.917-0.134,1.218-0.399
				c0.3-0.265,0.505-0.669,0.616-1.21v-3.729c-0.182-0.14-0.386-0.24-0.616-0.3c-0.231-0.061-0.537-0.09-0.917-0.09
				c-0.691,0-1.233,0.229-1.624,0.684c-0.391,0.456-0.586,1.185-0.586,2.187c0,0.412,0.032,0.792,0.098,1.143
				c0.064,0.352,0.173,0.652,0.323,0.902c0.15,0.251,0.348,0.448,0.594,0.595C580.132,911.335,580.431,911.408,580.782,911.408z"/>
			<path fill="#896B60" d="M591.62,911.679c-0.301,0.24-0.679,0.431-1.135,0.57c-0.457,0.14-0.939,0.211-1.45,0.211
				c-0.571,0-1.067-0.094-1.488-0.278c-0.422-0.186-0.767-0.451-1.038-0.797c-0.271-0.346-0.471-0.76-0.602-1.24
				c-0.13-0.481-0.195-1.021-0.195-1.623c0-1.283,0.286-2.26,0.857-2.931c0.571-0.672,1.388-1.009,2.449-1.009
				c0.342,0,0.682,0.039,1.022,0.113c0.341,0.075,0.647,0.218,0.918,0.429c0.27,0.211,0.49,0.51,0.661,0.895
				c0.17,0.386,0.256,0.894,0.256,1.525c0,0.332-0.03,0.697-0.091,1.098h-4.825c0,0.44,0.045,0.831,0.136,1.173
				c0.09,0.341,0.229,0.628,0.421,0.863c0.19,0.236,0.438,0.417,0.744,0.542c0.305,0.125,0.679,0.188,1.119,0.188
				c0.342,0,0.682-0.062,1.022-0.182s0.597-0.261,0.767-0.42L591.62,911.679z M589.035,905.635c-0.592,0-1.065,0.155-1.421,0.466
				c-0.355,0.312-0.568,0.843-0.639,1.594h3.728c0-0.762-0.145-1.295-0.437-1.601C589.976,905.787,589.565,905.635,589.035,905.635z
				"/>
			<path fill="#896B60" d="M597.077,910.235c0-0.302-0.091-0.537-0.271-0.706c-0.182-0.171-0.404-0.313-0.669-0.43
				c-0.267-0.115-0.557-0.225-0.872-0.33c-0.316-0.105-0.606-0.241-0.872-0.406s-0.488-0.378-0.669-0.639s-0.271-0.611-0.271-1.053
				c0-0.722,0.205-1.25,0.616-1.585c0.411-0.336,0.982-0.505,1.714-0.505c0.541,0,0.994,0.048,1.36,0.144
				c0.366,0.095,0.684,0.208,0.955,0.339l-0.286,0.992c-0.23-0.11-0.51-0.209-0.834-0.293c-0.326-0.086-0.674-0.129-1.045-0.129
				c-0.441,0-0.765,0.075-0.97,0.226c-0.206,0.151-0.309,0.411-0.309,0.782c0,0.261,0.091,0.463,0.271,0.609
				c0.179,0.145,0.402,0.275,0.669,0.39c0.265,0.115,0.555,0.229,0.871,0.338c0.316,0.11,0.606,0.256,0.871,0.437
				c0.267,0.181,0.489,0.408,0.67,0.684c0.181,0.276,0.271,0.639,0.271,1.09c0,0.321-0.053,0.622-0.157,0.901
				c-0.105,0.282-0.27,0.522-0.489,0.722c-0.221,0.201-0.494,0.359-0.819,0.474c-0.325,0.115-0.709,0.174-1.15,0.174
				c-0.57,0-1.058-0.056-1.457-0.166c-0.401-0.11-0.737-0.241-1.008-0.39l0.361-1.023c0.23,0.131,0.531,0.251,0.902,0.361
				c0.37,0.11,0.746,0.166,1.126,0.166c0.431,0,0.787-0.086,1.067-0.257C596.936,910.981,597.077,910.676,597.077,910.235z"/>
			<path fill="#896B60" d="M600.097,902.479c0-0.231,0.077-0.43,0.233-0.596c0.155-0.165,0.354-0.248,0.593-0.248
				c0.241,0,0.446,0.083,0.617,0.248c0.17,0.166,0.256,0.364,0.256,0.596c0,0.229-0.086,0.42-0.256,0.57
				c-0.171,0.15-0.376,0.226-0.617,0.226c-0.239,0-0.438-0.075-0.593-0.226C600.174,902.899,600.097,902.709,600.097,902.479z
				 M600.353,904.763h1.202v7.517h-1.202V904.763z"/>
			<path fill="#896B60" d="M609.883,912.625c0,0.972-0.258,1.689-0.774,2.149c-0.516,0.461-1.28,0.691-2.292,0.691
				c-0.602,0-1.085-0.037-1.451-0.112s-0.679-0.173-0.939-0.294l0.315-1.021c0.23,0.09,0.486,0.176,0.768,0.256
				c0.28,0.079,0.646,0.12,1.097,0.12c0.422,0,0.765-0.038,1.03-0.112c0.265-0.076,0.479-0.201,0.639-0.377
				c0.159-0.175,0.271-0.401,0.331-0.677c0.059-0.275,0.089-0.604,0.089-0.983v-0.722h-0.06c-0.201,0.291-0.456,0.514-0.767,0.669
				c-0.311,0.154-0.716,0.232-1.218,0.232c-1.012,0-1.756-0.315-2.232-0.947s-0.714-1.613-0.714-2.946
				c0-1.282,0.307-2.256,0.917-2.923c0.611-0.666,1.513-0.999,2.706-0.999c0.571,0,1.06,0.044,1.466,0.134
				c0.405,0.092,0.769,0.196,1.09,0.316V912.625z M606.862,911.392c0.511,0,0.912-0.127,1.202-0.383
				c0.291-0.256,0.496-0.653,0.617-1.194v-3.85c-0.401-0.189-0.913-0.284-1.534-0.284c-0.682,0-1.217,0.23-1.608,0.691
				c-0.391,0.46-0.586,1.183-0.586,2.164c0,0.421,0.034,0.807,0.104,1.157c0.07,0.352,0.181,0.652,0.331,0.902
				c0.15,0.251,0.347,0.446,0.587,0.587C606.215,911.322,606.511,911.392,606.862,911.392z"/>
			<path fill="#896B60" d="M617.023,912.279v-4.284c0-0.781-0.113-1.37-0.339-1.766c-0.225-0.396-0.639-0.595-1.24-0.595
				c-0.531,0-0.969,0.144-1.315,0.43c-0.345,0.284-0.588,0.643-0.728,1.073v5.142h-1.203v-7.517h0.842l0.225,0.918h0.061
				c0.241-0.321,0.564-0.585,0.97-0.79s0.89-0.309,1.45-0.309c0.412,0,0.772,0.048,1.082,0.144c0.312,0.095,0.569,0.263,0.774,0.503
				c0.206,0.24,0.361,0.564,0.467,0.97c0.104,0.406,0.157,0.92,0.157,1.542v4.539H617.023z"/>
			<path fill="#896B60" d="M625.908,911.679c-0.302,0.24-0.68,0.431-1.136,0.57c-0.457,0.14-0.939,0.211-1.451,0.211
				c-0.57,0-1.067-0.094-1.488-0.278c-0.42-0.186-0.767-0.451-1.037-0.797c-0.27-0.346-0.471-0.76-0.601-1.24
				c-0.131-0.481-0.195-1.021-0.195-1.623c0-1.283,0.286-2.26,0.856-2.931c0.571-0.672,1.389-1.009,2.45-1.009
				c0.341,0,0.682,0.039,1.022,0.113c0.34,0.075,0.646,0.218,0.917,0.429s0.491,0.51,0.662,0.895
				c0.169,0.386,0.255,0.894,0.255,1.525c0,0.332-0.031,0.697-0.09,1.098h-4.825c0,0.44,0.044,0.831,0.135,1.173
				c0.091,0.341,0.23,0.628,0.421,0.863c0.19,0.236,0.438,0.417,0.744,0.542s0.679,0.188,1.119,0.188
				c0.341,0,0.682-0.062,1.022-0.182c0.34-0.12,0.597-0.261,0.768-0.42L625.908,911.679z M623.321,905.635
				c-0.591,0-1.064,0.155-1.421,0.466c-0.355,0.312-0.568,0.843-0.639,1.594h3.729c0-0.762-0.146-1.295-0.436-1.601
				C624.263,905.787,623.852,905.635,623.321,905.635z"/>
			<path fill="#896B60" d="M633.829,909.693c0,0.511,0.005,0.975,0.016,1.391c0.01,0.416,0.055,0.824,0.135,1.225h-0.812
				l-0.301-1.066h-0.061c-0.2,0.351-0.491,0.642-0.871,0.872c-0.382,0.229-0.827,0.346-1.339,0.346
				c-1.002,0-1.746-0.315-2.232-0.947c-0.485-0.632-0.729-1.618-0.729-2.962c0-1.282,0.304-2.256,0.91-2.923
				c0.605-0.666,1.439-0.999,2.502-0.999c0.371,0,0.664,0.02,0.88,0.06s0.448,0.104,0.699,0.195v-3.128h1.202V909.693z
				 M630.792,911.408c0.512,0,0.918-0.134,1.219-0.399c0.3-0.265,0.506-0.669,0.616-1.21v-3.729c-0.182-0.14-0.386-0.24-0.616-0.3
				c-0.231-0.061-0.537-0.09-0.918-0.09c-0.691,0-1.232,0.229-1.623,0.684c-0.391,0.456-0.586,1.185-0.586,2.187
				c0,0.412,0.032,0.792,0.098,1.143c0.064,0.352,0.173,0.652,0.322,0.902c0.151,0.251,0.349,0.448,0.595,0.595
				C630.143,911.335,630.442,911.408,630.792,911.408z"/>
			<path fill="#896B60" d="M640.157,901.756h1.203v3.743h0.061c0.23-0.29,0.522-0.515,0.879-0.675
				c0.355-0.16,0.744-0.242,1.165-0.242c0.973,0,1.701,0.312,2.188,0.933s0.729,1.583,0.729,2.887c0,1.313-0.322,2.31-0.963,2.99
				c-0.642,0.683-1.543,1.023-2.705,1.023c-0.562,0-1.07-0.061-1.526-0.181s-0.8-0.251-1.03-0.392V901.756z M643.253,905.635
				c-0.501,0-0.906,0.141-1.217,0.422c-0.312,0.279-0.537,0.676-0.677,1.188v3.787c0.19,0.11,0.422,0.194,0.691,0.248
				c0.271,0.056,0.551,0.082,0.842,0.082c0.682,0,1.226-0.24,1.631-0.721c0.405-0.481,0.609-1.232,0.609-2.255
				c0-0.391-0.036-0.756-0.105-1.098c-0.07-0.341-0.181-0.632-0.331-0.872s-0.343-0.431-0.578-0.57
				C643.883,905.705,643.594,905.635,643.253,905.635z"/>
			<path fill="#896B60" d="M650.311,909.634l0.422,1.443h0.076l0.332-1.458l1.463-4.856h1.202l-2.224,6.75
				c-0.171,0.49-0.339,0.967-0.504,1.428c-0.166,0.461-0.349,0.872-0.549,1.232c-0.2,0.361-0.427,0.649-0.676,0.865
				c-0.251,0.215-0.542,0.322-0.873,0.322c-0.361,0-0.656-0.05-0.887-0.149l0.211-1.038c0.13,0.051,0.255,0.076,0.376,0.076
				c0.28,0,0.551-0.148,0.812-0.443c0.26-0.296,0.476-0.806,0.646-1.526l-3.021-7.517h1.383L650.311,909.634z"/>
		</g>
	</g>
	<g>
		<path fill="#FFFFFF" d="M2236.243,173.599h-600.349c-10.188,0-18.448,8.261-18.448,18.449v249.653l-57.768,18.555l57.768,16.77
			v173.98c0,10.186,8.26,18.449,18.448,18.449h600.349c10.189,0,18.448-8.264,18.448-18.449V192.048
			C2254.691,181.86,2246.432,173.599,2236.243,173.599z"/>
		<g>
			<rect x="1686.944" y="225.172" fill="none" width="510.333" height="417.676"/>
			<text transform="matrix(1 0 0 1 1686.9443 241.0405)"><tspan x="0" y="0" fill="#333333" font-family="'MyriadPro-Regular'" font-size="22.3503">This design was made by vexels.com. It’s under CC 3.0 </tspan><tspan x="0" y="26.82" fill="#333333" font-family="'MyriadPro-Regular'" font-size="22.3503">Attribution License. This means that for free use you </tspan><tspan x="0" y="53.641" fill="#333333" font-family="'MyriadPro-Regular'" font-size="22.3503">must give credit and can’t do merchandise items. You </tspan><tspan x="0" y="80.461" fill="#333333" font-family="'MyriadPro-Regular'" font-size="22.3503">can only do commercial and merchandise items </tspan><tspan x="0" y="107.282" fill="#333333" font-family="'MyriadPro-Regular'" font-size="22.3503">without credit if you get a license. Learn more on </tspan><tspan x="0" y="134.102" fill="#E34A00" font-family="'MyriadPro-Regular'" font-size="22.3503">www.vexels.com/plans</tspan><tspan x="0" y="187.743" fill="#333333" font-family="'MyriadPro-Regular'" font-size="22.3503">You can’t sublicense, redistribute or resell an image or </tspan><tspan x="0" y="214.563" fill="#333333" font-family="'MyriadPro-Regular'" font-size="22.3503">part of it. You can only use our contents for products </tspan><tspan x="0" y="241.383" fill="#333333" font-family="'MyriadPro-Regular'" font-size="22.3503">where the design is the main reason it’s being </tspan><tspan x="0" y="268.204" fill="#333333" font-family="'MyriadPro-Regular'" font-size="22.3503">purchased if you get a license. Learn more on </tspan><tspan x="0" y="295.024" fill="#E34A00" font-family="'MyriadPro-Regular'" font-size="22.3503">www.vexels.com/terms-and-conditions</tspan><tspan x="0" y="348.665" fill="#333333" font-family="'MyriadPro-Regular'" font-size="22.3503">Thanks!</tspan><tspan x="0" y="375.487" fill="#333333" font-family="'MyriadPro-Regular'" font-size="22.3503">Vexels Team</tspan></text>
		</g>
	</g>
</g>
</svg>
